<?xml version="1.0" encoding="utf-8"?>
<!-- Generator: Adobe Illustrator 20.1.0, SVG Export Plug-In . SVG Version: 6.00 Build 0)  -->
<svg version="1.1" id="Layer_1" xmlns="http://www.w3.org/2000/svg" xmlns:xlink="http://www.w3.org/1999/xlink" x="0px" y="0px"
	 viewBox="0 0 30.4 34.4" style="enable-background:new 0 0 30.4 34.4;" xml:space="preserve">
<style type="text/css">
	.st0{clip-path:url(#SVGID_2_);fill:#FFFFFF;}
</style>
<g>
	<defs>
		<rect id="SVGID_1_" width="30.4" height="34.4"/>
	</defs>
	<clipPath id="SVGID_2_">
		<use xlink:href="#SVGID_1_"  style="overflow:visible;"/>
	</clipPath>
	<path class="st0" d="M27.7,18.9c1.5,0.1,2.7-1.1,2.8-2.6c0.1-1.5-1-2.8-2.4-2.9l-9.7-1.2c0,0,2-3.4,2-8.4C20.4,0.4,18,0,16.6,0
		c-1.1,0-1.4,2.1-1.4,2.1l0,0c-0.3,1.4-0.6,2.6-1.7,4.8c-1.3,2.5-3,2.2-5,4.5c-0.4,0.4-0.8,1-1.3,1.8c0,0-0.1,0.1-0.1,0.2
		c0,0.1-0.1,0.2-0.1,0.3c-0.1,0.1-0.2,0.3-0.2,0.4c-1.3,1.3-3.2,1.1-4,1.1c-1.7,0-2.5,1-2.5,2.5v11.6c0,1.8,0.7,2.4,2.5,2.4h2.5
		c1.3,0,2.3,0.7,3.8,1.3c2.1,0.7,5.2,1.3,10.6,1.3c0.9,0,3.9,0,3.9,0c0.9,0,1.6-0.4,2.1-0.9c0.2-0.2,0.4-0.5,0.5-1
		c0-0.1,0-0.4,0-0.5c0.1-1.5-0.9-2.1-1.4-2.2l0,0l1.7,0.1c1.5,0.1,2.9-1,2.9-2.8c0-1.5-1.2-2.5-2.7-2.6h0.9c1.5,0.1,2.7-1.1,2.8-2.6
		C30.3,20.3,29.1,19,27.7,18.9L27.7,18.9z"/>
</g>
</svg>
