<svg xmlns="http://www.w3.org/2000/svg" xmlns:xlink="http://www.w3.org/1999/xlink" version="1.1" style="" xml:space="preserve" width="35" height="22.8"><rect id="backgroundrect" width="100%" height="100%" x="0" y="0" fill="none" stroke="none"/>
<style type="text/css">
	.st0{fill:#FFB600;}
	.st1{fill:#CB2026;}
	.st2{fill:#FFFFFF;}
	.st3{fill:#104493;}
	.st4{clip-path:url(#SVGID_2_);}
	.st5{clip-path:url(#SVGID_4_);fill-rule:evenodd;clip-rule:evenodd;}
	.st6{fill:none;stroke:#000000;stroke-width:3;stroke-linecap:round;stroke-linejoin:round;stroke-miterlimit:10;}
	.st7{fill:#231F20;}
	.st8{fill:#F9B953;}
	.st9{fill:#C31A36;}
	.st10{fill:#18BF18;}
	.st11{clip-path:url(#SVGID_6_);}
	.st12{fill:#FF7A3E;}
	.st13{fill:none;stroke:#000000;stroke-width:2.5;stroke-miterlimit:10;}
	.st14{fill:none;}
	.st15{stroke:#231F20;stroke-width:0.55;stroke-miterlimit:10;}
	.st16{clip-path:url(#SVGID_8_);}
</style>

<g class="currentLayer" style=""><title>Layer 1</title><g id="svg_1" class="selected" fill="#c21030" fill-opacity="1">
	<g id="svg_2" fill="#c21030" fill-opacity="1">
		<defs>
			<rect id="SVGID_7_" width="35" height="22.799999237060547" fill="#c21030" fill-opacity="1"/>
		</defs>
		<clipPath id="SVGID_2_">
			<use xlink:href="#SVGID_7_" style="overflow:visible;" id="svg_3"/>
		</clipPath>
		<path class="st4" d="M32.3,13.1l0.2-0.1c0.4-0.3,0.5-0.9,0.2-1.3c-0.3-0.4-0.9-0.5-1.3-0.2C16.9,21.6,6.4,11.9,5.9,11.5    c-0.4-0.3-1-0.3-1.3,0c-0.3,0.4-0.3,1,0,1.3c0,0,0.4,0.3,1,0.8l-1.9,3.1c-0.3,0.4-0.1,1,0.3,1.3c0.1,0.1,0.3,0.1,0.5,0.1    c0.3,0,0.6-0.2,0.8-0.4l1.8-3c1,0.6,2.3,1.3,3.9,1.9l-0.9,3c-0.2,0.5,0.1,1,0.6,1.2l0.3,0c0.4,0,0.8-0.3,0.9-0.7l0.9-3    c1.4,0.4,3.1,0.7,4.8,0.7v3c0,0.5,0.4,0.9,0.9,0.9s0.9-0.4,0.9-0.9v-3c1.5-0.1,3.1-0.3,4.8-0.8l1.1,3c0.1,0.4,0.5,0.6,0.9,0.6    l0.3-0.1c0.5-0.2,0.7-0.7,0.5-1.2L26,16.4c1.5-0.6,3.1-1.3,4.7-2.3l1.5,2c0.2,0.2,0.5,0.4,0.7,0.4c0.2,0,0.4-0.1,0.6-0.2    c0.4-0.3,0.5-0.9,0.2-1.3L32.3,13.1z M32.3,13.1" id="svg_4" fill="#c21030" fill-opacity="1"/>
	</g>
</g></g></svg>