<svg xmlns="http://www.w3.org/2000/svg" xmlns:xlink="http://www.w3.org/1999/xlink" version="1.1" style="enable-background:new 0 0 39 32.9;" xml:space="preserve" width="39" height="32.9"><rect id="backgroundrect" width="100%" height="100%" x="0" y="0" fill="none" stroke="none"/>
<style type="text/css">
	.st0{fill:#FFB600;}
	.st1{fill:#CB2026;}
	.st2{fill:#FFFFFF;}
	.st3{fill:#104493;}
	.st4{clip-path:url(#SVGID_2_);}
	.st5{clip-path:url(#SVGID_4_);fill-rule:evenodd;clip-rule:evenodd;}
	.st6{fill:none;stroke:#000000;stroke-width:3;stroke-linecap:round;stroke-linejoin:round;stroke-miterlimit:10;}
	.st7{fill:#231F20;}
	.st8{fill:#F9B953;}
	.st9{fill:#C31A36;}
	.st10{fill:#18BF18;}
	.st11{clip-path:url(#SVGID_6_);}
	.st12{fill:#FF7A3E;}
	.st13{fill:none;stroke:#000000;stroke-width:2.5;stroke-miterlimit:10;}
	.st14{fill:none;}
	.st15{stroke:#231F20;stroke-width:0.55;stroke-miterlimit:10;}
	.st16{clip-path:url(#SVGID_8_);}
</style>

<g class="currentLayer" style=""><title>Layer 1</title><g id="svg_1" class="selected" fill="#c21030" fill-opacity="1">
	<path d="M5.2,12.240540516376495 c0.30000000000000004,0.5 0.9,0.8 1.4,0.7000000000000001 c0.2,0 0.4,-0.1 0.6000000000000001,-0.2 c0.7000000000000001,-0.4 0.9,-1.4 0.5,-2.1 L4.7,5.640540516376495 C4.2,4.840540516376495 3.3,4.640540516376495 2.6,5.140540516376495 C1.9,5.540540516376495 1.6,6.440540516376496 2.1,7.2405405163764955 L5.2,12.240540516376495 zM5.2,12.240540516376495 " id="svg_2" fill="#c21030" fill-opacity="1"/>
	<path d="M11.7,9.040540516376495 c0.2,0.7000000000000001 0.9,1.2 1.6,1.1 c0.1,0 0.2,0 0.2,0 c0.8,-0.2 1.3,-1 1.1,-1.8 L13.2,2.5405405163764954 c-0.2,-0.8 -1,-1.3 -1.8,-1.1 c-0.8,0.2 -1.3,1 -1.1,1.8 L11.7,9.040540516376495 zM11.7,9.040540516376495 " id="svg_3" fill="#c21030" fill-opacity="1"/>
	<path d="M20.2,9.540540516376495 c0.1,0 0.2,0 0.2,0 c0.7000000000000001,-0.1 1.3,-0.7000000000000001 1.4,-1.4 l0.30000000000000004,-5.9 c0,-0.8 -0.6000000000000001,-1.6 -1.4,-1.6 c-0.8,0 -1.6,0.6000000000000001 -1.6,1.4 l-0.30000000000000004,5.9 C18.7,8.740540516376495 19.3,9.440540516376496 20.2,9.540540516376495 L20.2,9.540540516376495 zM20.2,9.540540516376495 " id="svg_4" fill="#c21030" fill-opacity="1"/>
	<path d="M26.8,10.940540516376496 c0.2,0.1 0.5,0.1 0.7000000000000001,0.1 c0.6000000000000001,-0.1 1.1,-0.4 1.3,-1 l2.1,-5.6 c0.30000000000000004,-0.8 -0.1,-1.7000000000000002 -0.9,-2 c-0.8,-0.30000000000000004 -1.7000000000000002,0.1 -2,0.9 l-2.1,5.6 C25.6,9.740540516376495 26,10.640540516376495 26.8,10.940540516376496 L26.8,10.940540516376496 zM26.8,10.940540516376496 " id="svg_5" fill="#c21030" fill-opacity="1"/>
	<path d="M38.4,7.340540516376495 c-0.7000000000000001,-0.5 -1.6,-0.4 -2.1,0.2 l-3.7,4.7 c-0.5,0.7000000000000001 -0.4,1.6 0.2,2.1 c0.30000000000000004,0.30000000000000004 0.7000000000000001,0.4 1.1,0.30000000000000004 c0.4,0 0.8,-0.2 1,-0.6000000000000001 l3.7,-4.7 C39.2,8.740540516376495 39.1,7.840540516376495 38.4,7.340540516376495 L38.4,7.340540516376495 zM38.4,7.340540516376495 " id="svg_6" fill="#c21030" fill-opacity="1"/>
	<path d="M36.4,21.340540516376496 c-0.1,-0.1 -1.9,-2.3 -4.9,-4.5 c-4.1,-3 -8.5,-4.6 -12.8,-4.6 c-4.3,0 -8.8,1.6 -12.8,4.6 c-2.9,2.2 -4.7,4.3 -4.9,4.5 L0.1,22.540540516376495 c-0.2,0.2 -0.2,0.5 0,0.7000000000000001 L1,24.340540516376496 c0.1,0.1 1.8,2.3 4.9,4.5 c4.1,3 8.5,4.6 12.8,4.6 c4.3,0 8.8,-1.6 12.8,-4.6 c3,-2.2 4.8,-4.4 4.9,-4.5 l0.9,-1.1 c0.2,-0.2 0.2,-0.5 0,-0.7000000000000001 L36.4,21.340540516376496 zM34.6,22.840540516376496 c-0.1,0.1 -1.7000000000000002,2.1 -4.4,4.1 c-3.7,2.7 -7.6,4.1 -11.5,4.1 c-3.8,0 -7.8,-1.4 -11.5,-4.1 c-2.8,-2 -4.4,-4.1 -4.4,-4.1 l0,0 l0,0 c0,0 1.7000000000000002,-2.1 4.4,-4.1 c2.4,-1.8 4.9,-3 7.5,-3.6 c0.7000000000000001,0.4 1.1,1.2 1.1,2 c0,1.3 -1.1,2.4 -2.4,2.4 c-0.7000000000000001,0 -1.3,-0.30000000000000004 -1.7000000000000002,-0.8 c-0.1,0.5 -0.2,1.1 -0.2,1.7000000000000002 c0,4 3.2,7.2 7.2,7.2 c4,0 7.2,-3.2 7.2,-7.2 c0,-1.9 -0.7000000000000001,-3.6 -2,-4.9 c2.1,0.7000000000000001 4.2,1.8 6.2,3.3 C32.9,20.740540516376495 34.5,22.740540516376495 34.6,22.840540516376496 L34.6,22.840540516376496 L34.6,22.840540516376496 zM34.6,22.840540516376496 " id="svg_7" fill="#c21030" fill-opacity="1"/>
</g></g></svg>