<svg xmlns="http://www.w3.org/2000/svg" xmlns:xlink="http://www.w3.org/1999/xlink" version="1.1" style="" xml:space="preserve" width="61.79999923706055" height="63.29999923706055"><rect id="backgroundrect" width="100%" height="100%" x="0" y="0" fill="none" stroke="none"/>
<style type="text/css">
	.st0{fill:#FFB600;}
	.st1{fill:#CB2026;}
	.st2{fill:#FFFFFF;}
	.st3{fill:#104493;}
	.st4{clip-path:url(#SVGID_2_);}
	.st5{clip-path:url(#SVGID_4_);fill-rule:evenodd;clip-rule:evenodd;}
	.st6{fill:none;stroke:#000000;stroke-width:3;stroke-linecap:round;stroke-linejoin:round;stroke-miterlimit:10;}
	.st7{fill:#231F20;}
	.st8{fill:#F9B953;}
	.st9{fill:#C31A36;}
	.st10{fill:#18BF18;}
	.st11{clip-path:url(#SVGID_6_);}
	.st12{fill:#FF7A3E;}
	.st13{fill:none;stroke:#000000;stroke-width:2.5;stroke-miterlimit:10;}
	.st14{fill:none;}
	.st15{stroke:#231F20;stroke-width:0.55;stroke-miterlimit:10;}
	.st16{clip-path:url(#SVGID_8_);}
</style>

<g class="currentLayer" style=""><title>Layer 1</title><g id="svg_1" class="selected" fill="#ff7731" fill-opacity="1">
	<path d="M25.2,26.3c0,1.5-1.2,2.6-2.6,2.6c-1.5,0-2.6-1.2-2.6-2.6c0-1.5,1.2-2.6,2.6-2.6C24,23.6,25.2,24.8,25.2,26.3L25.2,26.3z    M25.2,26.3" id="svg_2" fill="#ff7731" fill-opacity="1"/>
	<g id="svg_3" fill="#ff7731" fill-opacity="1">
		<defs>
			<rect id="SVGID_1_" x="0" width="61.79999923706055" height="63.29999923706055" fill="#ff7731" fill-opacity="1"/>
		</defs>
		<clipPath id="SVGID_2_">
			<use xlink:href="#SVGID_1_" style="overflow:visible;" id="svg_4"/>
		</clipPath>
		<path class="st4" d="M41.9,37c0,1.5-1.2,2.6-2.6,2.6c-1.5,0-2.6-1.2-2.6-2.6c0-1.5,1.2-2.6,2.6-2.6C40.7,34.3,41.9,35.5,41.9,37    L41.9,37z M41.9,37" id="svg_5" fill="#ff7731" fill-opacity="1"/>
		<path class="st4" d="M61,35.1l-1-1.3c-1-1.4-1.1-3.3,0-4.8l0.9-1.3c1.4-2,0.8-4.8-1.4-6l-1.4-0.8c-1.6-0.8-2.4-2.6-2.1-4.3    l0.3-1.6c0.4-2.4-1.4-4.7-3.9-4.8l-1.6-0.1c-1.8-0.1-3.3-1.3-3.8-3l-0.5-1.6c-0.7-2.4-3.3-3.6-5.6-2.6l-1.5,0.6    c-1.6,0.7-3.5,0.3-4.7-1l-1.1-1.2c-1.6-1.8-4.5-1.8-6.2,0.1l-1.1,1.2c-1.2,1.3-3,1.8-4.7,1.1l-1.5-0.6c-2.3-0.9-4.9,0.3-5.5,2.7    l-0.4,1.6c-0.5,1.7-2,2.9-3.7,3l-1.6,0.1c-2.5,0.1-4.3,2.4-3.8,4.8L5.6,17c0.3,1.7-0.5,3.5-2,4.3l-1.4,0.8c-2.2,1.2-2.8,4-1.3,6    l1,1.3c1,1.4,1.1,3.3,0,4.8l-0.9,1.3c-1.4,2-0.8,4.8,1.4,6l1.4,0.8c1.6,0.8,2.4,2.6,2.1,4.3l-0.3,1.6c-0.4,2.4,1.4,4.7,3.9,4.8    l1.6,0.1c1.8,0.1,3.3,1.3,3.8,3l0.5,1.6c0.7,2.4,3.3,3.6,5.6,2.6l1.5-0.6c1.6-0.7,3.5-0.3,4.7,1l1.1,1.2c1.7,1.8,4.5,1.8,6.2-0.1    l1.1-1.2c1.2-1.3,3-1.8,4.7-1.1l1.5,0.6c2.3,0.9,4.9-0.3,5.5-2.7l0.4-1.6c0.5-1.7,2-2.9,3.7-3l1.6-0.1c2.5-0.1,4.3-2.4,3.8-4.8    l-0.3-1.6c-0.3-1.7,0.5-3.5,2-4.3l1.4-0.8C61.8,39.9,62.5,37.1,61,35.1L61,35.1z M16.1,26.3c0-3.5,2.8-6.4,6.4-6.4    c3.5,0,6.4,2.8,6.4,6.4c0,3.5-2.8,6.4-6.4,6.4C19,32.6,16.1,29.8,16.1,26.3L16.1,26.3z M23.7,42.7c-0.5,0.7-1.5,0.7-2.2,0.2    c-0.7-0.5-0.7-1.5-0.2-2.2L38,20.6c0.5-0.7,1.5-0.7,2.2-0.2c0.7,0.5,0.7,1.5,0.2,2.2L23.7,42.7z M39.3,43.3    c-3.5,0-6.4-2.8-6.4-6.4c0-3.5,2.8-6.4,6.4-6.4c3.5,0,6.4,2.8,6.4,6.4C45.6,40.5,42.8,43.3,39.3,43.3L39.3,43.3z M39.3,43.3" id="svg_6" fill="#ff7731" fill-opacity="1"/>
	</g>
</g></g></svg>