<?xml version="1.0" encoding="utf-8"?>
<!-- Generator: Adobe Illustrator 21.0.0, SVG Export Plug-In . SVG Version: 6.00 Build 0)  -->
<svg version="1.1" id="Layer_1" xmlns="http://www.w3.org/2000/svg" xmlns:xlink="http://www.w3.org/1999/xlink" x="0px" y="0px"
	 viewBox="0 0 53 53.9" style="enable-background:new 0 0 53 53.9;" xml:space="preserve">
<style type="text/css">
	.st0{fill:#FFB600;}
	.st1{fill:#CB2026;}
	.st2{fill:#FFFFFF;}
	.st3{fill:#104493;}
	.st4{clip-path:url(#SVGID_2_);}
	.st5{clip-path:url(#SVGID_4_);fill-rule:evenodd;clip-rule:evenodd;}
	.st6{fill:none;stroke:#000000;stroke-width:3;stroke-linecap:round;stroke-linejoin:round;stroke-miterlimit:10;}
	.st7{fill:#231F20;}
	.st8{fill:#F9B953;}
	.st9{fill:#C31A36;}
	.st10{fill:#18BF18;}
	.st11{clip-path:url(#SVGID_6_);}
	.st12{fill:#FF7A3E;}
	.st13{fill:none;stroke:#000000;stroke-width:2.5;stroke-miterlimit:10;}
	.st14{fill:none;}
	.st15{stroke:#231F20;stroke-width:0.55;stroke-miterlimit:10;}
	.st16{clip-path:url(#SVGID_8_);}
</style>
<g>
	<path class="st8" d="M29.6,32.3v21.6h17.8c2.3,0,4.2-1.9,4.2-4.2V32.3H29.6z M29.6,32.3"/>
	<path class="st8" d="M23.3,32.3h-22v17.4c0,2.3,1.9,4.2,4.2,4.2h17.8V32.3z M7.1,49.5c-0.9,0-1.6-0.7-1.6-1.6v-8.7
		c0-0.9,0.7-1.6,1.6-1.6c0.9,0,1.6,0.7,1.6,1.6v8.7C8.6,48.8,7.9,49.5,7.1,49.5L7.1,49.5z M7.1,49.5"/>
	<path class="st12" d="M48.8,15.9h-7.9c1.1-0.5,2-1.1,2.5-1.6c3.2-3.2,3.2-8.5,0-11.7c-1.6-1.6-3.7-2.4-5.9-2.4
		c-2.1,0-4.2,0.8-5.9,2.4c-1.3,1.3-2.6,4.7-3.7,8.1c-0.5-0.1-1-0.2-1.5-0.2c-0.5,0-1,0.1-1.5,0.2c-1.1-3.5-2.4-6.8-3.7-8.2
		C19.6,0.8,17.5,0,15.4,0c-2.1,0-4.2,0.8-5.9,2.4c-3.2,3.2-3.2,8.5,0,11.7c0.6,0.6,1.6,1.2,2.7,1.7h-8C1.9,15.9,0,17.7,0,20v3.6
		c0,2.3,1.9,4.2,4.2,4.2h19.1V16h6.3v11.8h19.1c2.3,0,4.2-1.9,4.2-4.2V20C53,17.7,51.1,15.9,48.8,15.9L48.8,15.9z M34.7,5.5
		c0.8-0.8,1.8-1.2,2.9-1.2c1.1,0,2.1,0.4,2.9,1.2c0.8,0.8,1.2,1.8,1.2,2.9c0,1.1-0.4,2.1-1.2,2.9c-0.9,0.8-4.3,2.1-8.5,3.3
		c-0.1-0.4-0.3-0.8-0.5-1.2C32.7,9.5,33.9,6.3,34.7,5.5L34.7,5.5z M12.5,5.4c0.8-0.8,1.8-1.2,2.9-1.2c1.1,0,2.1,0.4,2.9,1.2
		c0.8,0.8,2,4,3.2,8c-0.2,0.3-0.3,0.7-0.5,1.1c-4.2-1.2-7.6-2.5-8.5-3.3C10.9,9.6,10.9,7,12.5,5.4L12.5,5.4z M12.5,5.4"/>
</g>
</svg>
