<?xml version="1.0" encoding="utf-8"?>
<!-- Generator: Adobe Illustrator 21.0.0, SVG Export Plug-In . SVG Version: 6.00 Build 0)  -->
<svg version="1.1" id="Layer_1" xmlns="http://www.w3.org/2000/svg" xmlns:xlink="http://www.w3.org/1999/xlink" x="0px" y="0px"
	 viewBox="0 0 29 36.2" style="enable-background:new 0 0 29 36.2;" xml:space="preserve">
<style type="text/css">
	.st0{fill:#FFB600;}
	.st1{fill:#CB2026;}
	.st2{fill:#FFFFFF;}
	.st3{fill:#104493;}
	.st4{clip-path:url(#SVGID_2_);}
	.st5{clip-path:url(#SVGID_4_);fill-rule:evenodd;clip-rule:evenodd;}
	.st6{fill:none;stroke:#000000;stroke-width:3;stroke-linecap:round;stroke-linejoin:round;stroke-miterlimit:10;}
	.st7{fill:#231F20;}
	.st8{fill:#F9B953;}
	.st9{fill:#C31A36;}
	.st10{fill:#18BF18;}
	.st11{clip-path:url(#SVGID_6_);}
	.st12{fill:#FF7A3E;}
	.st13{fill:none;stroke:#000000;stroke-width:2.5;stroke-miterlimit:10;}
	.st14{fill:none;}
	.st15{stroke:#231F20;stroke-width:0.55;stroke-miterlimit:10;}
	.st16{clip-path:url(#SVGID_8_);}
</style>
<g>
	<path d="M29,31.3L26.9,8c0-0.5-0.5-0.9-1-0.9h-4.3c-0.1-3.9-3.2-7-7.2-7c-3.9,0-7.1,3.1-7.2,7H3.1C2.6,7,2.1,7.4,2.1,8L0,31.3
		c0,0,0,0.1,0,0.1c0,2.7,2.4,4.8,5.4,4.8h18.1C26.6,36.2,29,34.1,29,31.3C29,31.4,29,31.3,29,31.3L29,31.3z M14.5,2
		c2.8,0,5.1,2.3,5.2,5H9.3C9.4,4.3,11.7,2,14.5,2L14.5,2z M23.6,34.2H5.4C3.6,34.2,2,33,2,31.5L4,9.1h3.3v3c0,0.6,0.4,1,1,1
		c0.6,0,1-0.4,1-1v-3h10.3v3c0,0.6,0.4,1,1,1c0.6,0,1-0.4,1-1v-3H25l2,22.4C27,33,25.4,34.2,23.6,34.2L23.6,34.2z M23.6,34.2"/>
</g>
</svg>
