<?xml version="1.0" encoding="utf-8"?>
<!-- Generator: Adobe Illustrator 21.0.0, SVG Export Plug-In . SVG Version: 6.00 Build 0)  -->
<svg version="1.1" id="Layer_1" xmlns="http://www.w3.org/2000/svg" xmlns:xlink="http://www.w3.org/1999/xlink" x="0px" y="0px"
	 viewBox="0 0 30.4 34.4" style="enable-background:new 0 0 30.4 34.4;" xml:space="preserve">
<style type="text/css">
	.st0{fill:#FFB600;}
	.st1{fill:#CB2026;}
	.st2{fill:#FFFFFF;}
	.st3{fill:#104493;}
	.st4{clip-path:url(#SVGID_2_);}
	.st5{clip-path:url(#SVGID_4_);fill-rule:evenodd;clip-rule:evenodd;}
	.st6{fill:none;stroke:#000000;stroke-width:3;stroke-linecap:round;stroke-linejoin:round;stroke-miterlimit:10;}
	.st7{fill:#231F20;}
	.st8{fill:#F9B953;}
	.st9{fill:#C31A36;}
	.st10{fill:#18BF18;}
	.st11{clip-path:url(#SVGID_6_);}
	.st12{fill:#FF7A3E;}
	.st13{fill:none;stroke:#000000;stroke-width:2.5;stroke-miterlimit:10;}
	.st14{fill:none;}
	.st15{stroke:#231F20;stroke-width:0.55;stroke-miterlimit:10;}
	.st16{clip-path:url(#SVGID_8_);}
</style>
<g>
	<g>
		<defs>
			<rect id="SVGID_3_" y="0" width="30.4" height="34.4"/>
		</defs>
		<clipPath id="SVGID_2_">
			<use xlink:href="#SVGID_3_"  style="overflow:visible;"/>
		</clipPath>
		<path style="clip-path:url(#SVGID_2_);fill-rule:evenodd;clip-rule:evenodd;" d="M27.7,18.9c1.5,0.1,2.7-1.1,2.8-2.6
			c0.1-1.5-1-2.8-2.4-2.9l-9.7-1.2c0,0,2-3.4,2-8.4c0-3.4-2.4-3.8-3.8-3.8c-1.1,0-1.4,2.1-1.4,2.1h0c-0.3,1.4-0.6,2.6-1.7,4.8
			c-1.3,2.5-3,2.2-5,4.5c-0.4,0.4-0.8,1-1.3,1.8c0,0-0.1,0.1-0.1,0.2c0,0.1-0.1,0.2-0.1,0.3c-0.1,0.1-0.2,0.3-0.2,0.4
			c-1.3,1.3-3.2,1.1-4,1.1c-1.7,0-2.5,1-2.5,2.5l0,11.6c0,1.8,0.7,2.4,2.5,2.4h2.5c1.3,0,2.3,0.7,3.8,1.3c2.1,0.7,5.2,1.3,10.6,1.3
			c0.9,0,3.9,0,3.9,0c0.9,0,1.6-0.4,2.1-0.9c0.2-0.2,0.4-0.5,0.5-1c0-0.1,0-0.4,0-0.5c0.1-1.5-0.9-2.1-1.4-2.2c0,0,0,0,0,0l1.7,0.1
			c1.5,0.1,2.9-1,2.9-2.8c0-1.5-1.2-2.5-2.7-2.6l0.9,0c1.5,0.1,2.7-1.1,2.8-2.6C30.3,20.3,29.1,19,27.7,18.9L27.7,18.9z M27.7,18.9"
			/>
	</g>
</g>
</svg>
