<?xml version="1.0" encoding="utf-8"?>
<!-- Generator: Adobe Illustrator 21.0.0, SVG Export Plug-In . SVG Version: 6.00 Build 0)  -->
<svg version="1.1" id="Layer_1" xmlns="http://www.w3.org/2000/svg" xmlns:xlink="http://www.w3.org/1999/xlink" x="0px" y="0px"
	 viewBox="0 0 70.8 67.6" style="enable-background:new 0 0 70.8 67.6;" xml:space="preserve">
<style type="text/css">
	.st0{fill:#FFB600;}
	.st1{fill:#CB2026;}
	.st2{fill:#FFFFFF;}
	.st3{fill:#104493;}
	.st4{clip-path:url(#SVGID_2_);}
	.st5{clip-path:url(#SVGID_4_);fill-rule:evenodd;clip-rule:evenodd;}
	.st6{fill:none;stroke:#000000;stroke-width:3;stroke-linecap:round;stroke-linejoin:round;stroke-miterlimit:10;}
	.st7{fill:#231F20;}
	.st8{fill:#F9B953;}
	.st9{fill:#C31A36;}
	.st10{fill:#18BF18;}
	.st11{clip-path:url(#SVGID_6_);}
	.st12{fill:#FF7A3E;}
	.st13{fill:none;stroke:#000000;stroke-width:2.5;stroke-miterlimit:10;}
	.st14{fill:none;}
	.st15{stroke:#231F20;stroke-width:0.55;stroke-miterlimit:10;}
	.st16{clip-path:url(#SVGID_8_);}
</style>
<g>
	<path d="M38.1,1.7l8.6,17.4c0.4,0.9,1.3,1.5,2.3,1.7l19.2,2.8c2.5,0.4,3.5,3.4,1.7,5.2L56,42.2c-0.7,0.7-1,1.7-0.9,2.7L58.4,64
		c0.4,2.5-2.2,4.4-4.4,3.2l-17.1-9c-0.9-0.5-1.9-0.5-2.8,0l-17.1,9c-2.2,1.2-4.8-0.7-4.4-3.2l3.3-19.1c0.2-1-0.2-2-0.9-2.7L0.9,28.7
		c-1.8-1.8-0.8-4.8,1.7-5.2l19.2-2.8c1-0.1,1.9-0.8,2.3-1.7l8.6-17.4C33.8-0.6,37-0.6,38.1,1.7z"/>
</g>
</svg>
