<?xml version="1.0" encoding="utf-8"?>
<!-- Generator: Adobe Illustrator 21.0.0, SVG Export Plug-In . SVG Version: 6.00 Build 0)  -->
<svg version="1.1" id="Layer_1" xmlns="http://www.w3.org/2000/svg" xmlns:xlink="http://www.w3.org/1999/xlink" x="0px" y="0px"
	 viewBox="0 0 35.8 34.5" style="enable-background:new 0 0 35.8 34.5;" xml:space="preserve">
<style type="text/css">
	.st0{fill:#FFB600;}
	.st1{fill:#CB2026;}
	.st2{fill:#FFFFFF;}
	.st3{fill:#104493;}
	.st4{clip-path:url(#SVGID_2_);}
	.st5{clip-path:url(#SVGID_4_);fill-rule:evenodd;clip-rule:evenodd;}
	.st6{fill:none;stroke:#000000;stroke-width:3;stroke-linecap:round;stroke-linejoin:round;stroke-miterlimit:10;}
	.st7{fill:#231F20;}
	.st8{fill:#F9B953;}
	.st9{fill:#C31A36;}
	.st10{fill:#18BF18;}
	.st11{clip-path:url(#SVGID_6_);}
	.st12{fill:#FF7A3E;}
	.st13{fill:none;stroke:#000000;stroke-width:2.5;stroke-miterlimit:10;}
	.st14{fill:none;}
	.st15{stroke:#231F20;stroke-width:0.55;stroke-miterlimit:10;}
	.st16{clip-path:url(#SVGID_8_);}
</style>
<g>
	<path class="st8" d="M33.1,14.5c-0.6,0-1.1,0.5-1.1,1.1v1.5c0,4-1.6,7.7-4.4,10.5C24.8,30.4,21,32,17.1,32c-4,0-7.7-1.6-10.5-4.4
		C3.7,24.8,2.2,21,2.2,17.1c0-4,1.6-7.7,4.4-10.5c2.8-2.8,6.5-4.4,10.5-4.4c2.1,0,4.1,0.4,6.1,1.3c0.6,0.2,1.2,0,1.5-0.6
		c0.2-0.6,0-1.2-0.6-1.5c-2.2-1-4.5-1.5-6.9-1.5C12.5,0,8.2,1.8,5,5c-3.2,3.2-5,7.5-5,12.1c0,4.6,1.8,8.9,5,12.1
		c3.2,3.2,7.5,5,12.1,5l0,0.4v-0.4c4.6,0,8.8-1.8,12.1-5c3.2-3.2,5-7.5,5-12.1v-1.5C34.2,15,33.7,14.5,33.1,14.5z"/>
	<path class="st10" d="M35.4,1.9c-0.4-0.4-1.1-0.4-1.6,0L17.1,18.7l-4-4c-0.2-0.2-0.5-0.3-0.8-0.3c-0.3,0-0.6,0.1-0.8,0.3
		c-0.2,0.2-0.3,0.5-0.3,0.8c0,0.3,0.1,0.6,0.3,0.8l4.8,4.8c0.4,0.4,1.1,0.4,1.6,0L35.4,3.5c0.2-0.2,0.3-0.5,0.3-0.8
		C35.8,2.4,35.6,2.1,35.4,1.9z"/>
</g>
</svg>
