<?xml version="1.0" encoding="utf-8"?>
<!-- Generator: Adobe Illustrator 21.0.0, SVG Export Plug-In . SVG Version: 6.00 Build 0)  -->
<svg version="1.1" id="Layer_1" xmlns="http://www.w3.org/2000/svg" xmlns:xlink="http://www.w3.org/1999/xlink" x="0px" y="0px"
	 viewBox="0 0 36.9 37.6" style="enable-background:new 0 0 36.9 37.6;" xml:space="preserve">
<style type="text/css">
	.st0{fill:#FFB600;}
	.st1{fill:#CB2026;}
	.st2{fill:#FFFFFF;}
	.st3{fill:#104493;}
	.st4{clip-path:url(#SVGID_2_);}
	.st5{clip-path:url(#SVGID_4_);fill-rule:evenodd;clip-rule:evenodd;}
	.st6{fill:none;stroke:#000000;stroke-width:3;stroke-linecap:round;stroke-linejoin:round;stroke-miterlimit:10;}
	.st7{fill:#231F20;}
	.st8{fill:#F9B953;}
	.st9{fill:#C31A36;}
	.st10{fill:#18BF18;}
	.st11{clip-path:url(#SVGID_6_);}
	.st12{fill:#FF7A3E;}
	.st13{fill:none;stroke:#000000;stroke-width:2.5;stroke-miterlimit:10;}
	.st14{fill:none;}
	.st15{stroke:#231F20;stroke-width:0.55;stroke-miterlimit:10;}
	.st16{clip-path:url(#SVGID_8_);}
</style>
<g>
	<path class="st13" d="M35.2,20.7L34.6,20c-0.6-0.8-0.6-1.9,0-2.7l0.5-0.7c0.8-1.1,0.4-2.7-0.8-3.3l-0.8-0.4
		c-0.9-0.5-1.3-1.4-1.2-2.4l0.2-0.9c0.2-1.4-0.8-2.6-2.2-2.7l-0.9,0c-1,0-1.8-0.7-2.1-1.6l-0.3-0.9c-0.4-1.3-1.8-2-3.1-1.5l-0.8,0.4
		c-0.9,0.4-1.9,0.2-2.6-0.6L20,2c-0.9-1-2.5-1-3.4,0L16,2.7c-0.6,0.7-1.7,1-2.6,0.6L12.6,3c-1.3-0.5-2.7,0.2-3.1,1.5L9.3,5.4
		C9,6.3,8.2,7,7.2,7L6.3,7.1C4.9,7.2,3.9,8.4,4.2,9.8l0.2,0.9c0.2,1-0.3,1.9-1.1,2.4l-0.8,0.4c-1.2,0.7-1.5,2.2-0.7,3.3l0.5,0.7
		c0.6,0.8,0.6,1.9,0,2.7L1.7,21c-0.8,1.1-0.4,2.7,0.8,3.3l0.8,0.4c0.9,0.5,1.3,1.4,1.2,2.4L4.3,28c-0.2,1.4,0.8,2.6,2.2,2.7l0.9,0
		c1,0,1.8,0.7,2.1,1.6l0.3,0.9c0.4,1.3,1.8,2,3.1,1.5l0.8-0.4c0.9-0.4,1.9-0.2,2.6,0.6l0.6,0.7c0.9,1,2.5,1,3.4,0l0.6-0.7
		c0.6-0.7,1.7-1,2.6-0.6l0.8,0.3c1.3,0.5,2.7-0.2,3.1-1.5l0.2-0.9c0.3-0.9,1.1-1.6,2.1-1.7l0.9-0.1c1.4-0.1,2.4-1.3,2.1-2.7
		l-0.2-0.9c-0.2-1,0.3-1.9,1.1-2.4l0.8-0.4C35.6,23.4,36,21.8,35.2,20.7L35.2,20.7z M29.8,31.4"/>
	<path class="st14" d="M23.8,12.2c-0.4-0.3-1-0.3-1.3,0.1l-10,12.1c-0.3,0.4-0.3,1,0.1,1.3c0.4,0.3,1,0.3,1.3-0.1l10-12.1
		C24.3,13.1,24.2,12.5,23.8,12.2z"/>
	<path d="M12.6,25.7c0.4,0.3,1,0.3,1.3-0.1l10-12.1c0.3-0.4,0.3-1-0.1-1.3c-0.4-0.3-1-0.3-1.3,0.1l-10,12.1
		C12.2,24.8,12.2,25.4,12.6,25.7z"/>
	<path d="M13.2,11.9c-2.1,0-3.8,1.7-3.8,3.8c0,2.1,1.7,3.8,3.8,3.8c2.1,0,3.8-1.7,3.8-3.8C17,13.6,15.3,11.9,13.2,11.9z M13.2,17.3
		c-0.9,0-1.6-0.7-1.6-1.6c0-0.9,0.7-1.6,1.6-1.6c0.9,0,1.6,0.7,1.6,1.6C14.8,16.6,14.1,17.3,13.2,17.3z"/>
	<path d="M23.3,18.3c-2.1,0-3.8,1.7-3.8,3.8c0,2.1,1.7,3.8,3.8,3.8c2.1,0,3.8-1.7,3.8-3.8C27.1,20.1,25.4,18.3,23.3,18.3z
		 M23.3,23.8c-0.9,0-1.6-0.7-1.6-1.6c0-0.9,0.7-1.6,1.6-1.6c0.9,0,1.6,0.7,1.6,1.6C24.9,23,24.2,23.8,23.3,23.8z"/>
</g>
</svg>
