<?xml version="1.0" encoding="utf-8"?>
<!-- Generator: Adobe Illustrator 21.0.0, SVG Export Plug-In . SVG Version: 6.00 Build 0)  -->
<svg version="1.1" id="Layer_1" xmlns="http://www.w3.org/2000/svg" xmlns:xlink="http://www.w3.org/1999/xlink" x="0px" y="0px"
	 viewBox="0 0 39.7 38.1" style="enable-background:new 0 0 39.7 38.1;" xml:space="preserve">
<style type="text/css">
	.st0{fill:#FFB600;}
	.st1{fill:#CB2026;}
	.st2{fill:#FFFFFF;}
	.st3{fill:#104493;}
	.st4{clip-path:url(#SVGID_2_);}
	.st5{clip-path:url(#SVGID_4_);fill-rule:evenodd;clip-rule:evenodd;}
	.st6{fill:none;stroke:#000000;stroke-width:3;stroke-linecap:round;stroke-linejoin:round;stroke-miterlimit:10;}
	.st7{fill:#231F20;}
	.st8{fill:#F9B953;}
	.st9{fill:#C31A36;}
	.st10{fill:#18BF18;}
	.st11{clip-path:url(#SVGID_6_);}
	.st12{fill:#FF7A3E;}
	.st13{fill:none;stroke:#000000;stroke-width:2.5;stroke-miterlimit:10;}
	.st14{fill:none;}
	.st15{stroke:#231F20;stroke-width:0.55;stroke-miterlimit:10;}
	.st16{clip-path:url(#SVGID_8_);}
</style>
<g>
	<path class="st3" d="M9.3,7.2l15.8-4.3l-0.8-1.7c-0.5-1.1-1.9-1.6-3-1l-14.2,7H9.3z M9.3,7.2"/>
	<path class="st3" d="M30,3.1c-0.2,0-0.4,0-0.6,0.1l-3.7,1L14.3,7.2h18.5l-0.7-2.5C31.9,3.7,31,3.1,30,3.1L30,3.1z M30,3.1"/>
	<path class="st3" d="M35.1,8.8H2.2c-0.7,0-1.3,0.3-1.7,0.8c-0.2,0.2-0.3,0.5-0.4,0.8C0,10.6,0,10.8,0,11v24.8c0,1.2,1,2.2,2.2,2.2
		h32.9c1.2,0,2.2-1,2.2-2.2v-6.2H24.2c-2.1,0-3.8-1.7-3.8-3.8v-5c0-1,0.4-2,1.1-2.6c0.6-0.6,1.4-1,2.3-1.1c0.1,0,0.3,0,0.4,0h13.2
		V11C37.4,9.8,36.4,8.8,35.1,8.8L35.1,8.8z M35.1,8.8"/>
	<path class="st3" d="M38.9,19.2c-0.2-0.2-0.5-0.4-0.8-0.5c-0.2-0.1-0.5-0.1-0.7-0.1H24.2c-1.2,0-2.2,1-2.2,2.2v5
		c0,1.2,1,2.2,2.2,2.2h13.3c0.3,0,0.5,0,0.7-0.1c0.3-0.1,0.6-0.3,0.8-0.5c0.4-0.4,0.7-1,0.7-1.6v-5C39.7,20.2,39.4,19.6,38.9,19.2
		L38.9,19.2z M28.8,23.8c0,0.6-0.5,1.1-1.1,1.1h-0.7c-0.6,0-1.1-0.5-1.1-1.1v-0.7c0-0.4,0.2-0.7,0.4-0.9c0.2-0.1,0.4-0.2,0.7-0.2
		h0.7c0.6,0,1.1,0.5,1.1,1.1V23.8z M28.8,23.8"/>
</g>
</svg>
