<?xml version="1.0" encoding="utf-8"?>
<!-- Generator: Adobe Illustrator 21.0.0, SVG Export Plug-In . SVG Version: 6.00 Build 0)  -->
<svg version="1.1" id="Layer_1" xmlns="http://www.w3.org/2000/svg" xmlns:xlink="http://www.w3.org/1999/xlink" x="0px" y="0px"
	 viewBox="0 0 23.9 23.9" style="enable-background:new 0 0 23.9 23.9;" xml:space="preserve">
<style type="text/css">
	.st0{fill:#FFB600;}
	.st1{fill:#CB2026;}
	.st2{fill:#FFFFFF;}
	.st3{fill:#104493;}
	.st4{clip-path:url(#SVGID_2_);}
	.st5{clip-path:url(#SVGID_4_);fill-rule:evenodd;clip-rule:evenodd;}
	.st6{fill:none;stroke:#000000;stroke-width:3;stroke-linecap:round;stroke-linejoin:round;stroke-miterlimit:10;}
	.st7{fill:#231F20;}
	.st8{fill:#F9B953;}
	.st9{fill:#C31A36;}
	.st10{fill:#18BF18;}
	.st11{clip-path:url(#SVGID_6_);}
	.st12{fill:#FF7A3E;}
	.st13{fill:none;stroke:#000000;stroke-width:2.5;stroke-miterlimit:10;}
	.st14{fill:none;}
	.st15{stroke:#231F20;stroke-width:0.55;stroke-miterlimit:10;}
	.st16{clip-path:url(#SVGID_8_);}
</style>
<g>
	<path d="M11.9,0C5.4,0,0,5.4,0,11.9s5.4,11.9,11.9,11.9s11.9-5.4,11.9-11.9S18.5,0,11.9,0L11.9,0z M11.9,21.4
		c-5.2,0-9.4-4.2-9.4-9.4s4.2-9.4,9.4-9.4s9.4,4.2,9.4,9.4S17.1,21.4,11.9,21.4L11.9,21.4z M11.9,21.4"/>
	<path d="M18.4,11.6h-4.7c-0.2-0.3-0.4-0.5-0.7-0.7V5.3c0-0.6-0.5-1.1-1.1-1.1c-0.6,0-1.1,0.5-1.1,1.1v5.6c-0.6,0.4-1,1-1,1.7
		c0,1.1,0.9,2,2,2c0.7,0,1.4-0.4,1.7-1h4.7c0.6,0,1.1-0.5,1.1-1.1C19.4,12.1,18.9,11.6,18.4,11.6L18.4,11.6z M18.4,11.6"/>
</g>
</svg>
