<?xml version="1.0" encoding="utf-8"?>
<!-- Generator: Adobe Illustrator 21.0.0, SVG Export Plug-In . SVG Version: 6.00 Build 0)  -->
<svg version="1.1" id="Layer_1" xmlns="http://www.w3.org/2000/svg" xmlns:xlink="http://www.w3.org/1999/xlink" x="0px" y="0px"
	 viewBox="0 0 32.9 32.9" style="enable-background:new 0 0 32.9 32.9;" xml:space="preserve">
<style type="text/css">
	.st0{fill:#FFB600;}
	.st1{fill:#CB2026;}
	.st2{fill:#FFFFFF;}
	.st3{fill:#104493;}
	.st4{clip-path:url(#SVGID_2_);}
	.st5{clip-path:url(#SVGID_4_);fill-rule:evenodd;clip-rule:evenodd;}
	.st6{fill:none;stroke:#000000;stroke-width:3;stroke-linecap:round;stroke-linejoin:round;stroke-miterlimit:10;}
	.st7{fill:#231F20;}
	.st8{fill:#F9B953;}
	.st9{fill:#C31A36;}
	.st10{fill:#18BF18;}
	.st11{clip-path:url(#SVGID_6_);}
	.st12{fill:#FF7A3E;}
	.st13{fill:none;stroke:#000000;stroke-width:2.5;stroke-miterlimit:10;}
	.st14{fill:none;}
	.st15{stroke:#231F20;stroke-width:0.55;stroke-miterlimit:10;}
	.st16{clip-path:url(#SVGID_8_);}
</style>
<path class="st7" d="M32.9,16.4C32.9,7.4,25.5,0,16.4,0S0,7.4,0,16.4c0,5.5,2.7,10.4,6.9,13.3c0,0,0,0,0.1,0.1c0,0,0.1,0,0.1,0.1
	c0.2,0.1,0.4,0.3,0.6,0.4c0.2,0.1,0.4,0.3,0.6,0.4c0.2,0.1,0.4,0.2,0.6,0.3c0.3,0.1,0.5,0.3,0.8,0.4c0.2,0.1,0.3,0.2,0.5,0.2
	c0.4,0.2,0.9,0.3,1.3,0.5c0.1,0,0.2,0.1,0.3,0.1c0.4,0.1,0.7,0.2,1.1,0.3c0.2,0,0.3,0.1,0.5,0.1c0.3,0.1,0.7,0.1,1.1,0.2
	c0.2,0,0.3,0,0.5,0.1c0.5,0,1,0.1,1.5,0.1c0.5,0,1,0,1.5-0.1c0.2,0,0.3,0,0.4-0.1c0.4,0,0.7-0.1,1.1-0.2c0.2,0,0.3-0.1,0.5-0.1
	c0.4-0.1,0.8-0.2,1.2-0.3c0.1,0,0.2,0,0.3-0.1c0.5-0.1,0.9-0.3,1.4-0.5c0.1-0.1,0.3-0.1,0.4-0.2c0.3-0.1,0.6-0.3,0.9-0.4
	c0.2-0.1,0.4-0.2,0.5-0.3c0.2-0.1,0.5-0.3,0.7-0.4c0.2-0.1,0.4-0.2,0.5-0.4c0,0,0.1-0.1,0.1-0.1c0,0,0,0,0.1-0.1
	C30.2,26.8,32.9,21.9,32.9,16.4z M22.4,29.7c-0.2,0.1-0.4,0.2-0.6,0.3c-0.1,0-0.2,0.1-0.3,0.1c-3.2,1.2-6.9,1.2-10.1,0
	c-0.1,0-0.2-0.1-0.3-0.1c-0.2-0.1-0.4-0.2-0.6-0.3c-0.2-0.1-0.4-0.2-0.6-0.3c-0.1,0-0.2-0.1-0.3-0.1c2.9-1.3,3.9-2.8,3.9-5.6
	c0-1.1-0.3-1.6-0.6-2c-0.3-0.4-0.6-0.9-0.9-2.3c-0.2-1-0.8-1.3-1.1-1.4c-0.2-0.1-0.4-0.2-0.5-1.3c0-0.4,0.1-0.5,0.1-0.6
	c0.3-0.2,0.5-0.6,0.5-1c0,0-0.1-0.8-0.3-1.7c-0.4-2.4-0.4-4.8,2.4-6C16,6.2,18,7,18.2,7.2c0.2,0.3,0.5,0.4,0.7,0.5
	c0.1,0,0.1,0,0.2,0c0.1,0,1.4,0,2.2,0.9c1.1,1.3,0.8,4.9,0.6,6.4c-0.1,0.4,0.1,0.8,0.4,1c0,0,0.1,0.1,0.1,0.5
	c-0.1,1.2-0.3,1.3-0.5,1.4c-0.3,0.1-0.9,0.4-1.1,1.4c-0.3,1.4-0.6,1.9-0.9,2.3c-0.3,0.4-0.6,0.9-0.6,2c0,2.8,1,4.3,3.9,5.6
	c-0.1,0.1-0.2,0.1-0.3,0.2C22.8,29.5,22.6,29.6,22.4,29.7z M25.2,28c-3.5-1.4-3.9-2.5-3.9-4.4c0-0.5,0.1-0.6,0.3-0.9
	c0.3-0.5,0.8-1.2,1.2-3c0,0,0,0,0,0c0.8-0.4,1.4-1,1.5-3c0-0.9-0.3-1.4-0.5-1.8c0.2-1.5,0.6-5.6-1.1-7.5c-1-1.2-2.4-1.5-3.3-1.5
	c-1-0.9-3.7-1.6-7.1-0.2c-4.1,1.7-4,5.4-3.6,8c0.1,0.5,0.1,0.9,0.2,1.3c-0.3,0.3-0.5,0.9-0.5,1.8c0.1,1.9,0.7,2.5,1.5,2.9
	c0,0,0,0,0,0c0,0,0,0,0,0c0.3,1.8,0.8,2.5,1.2,3c0.2,0.3,0.3,0.4,0.3,0.9c0,1.9-0.4,3-3.9,4.4c-3.5-2.7-5.7-6.8-5.7-11.5
	c0-8,6.5-14.5,14.5-14.5c8,0,14.5,6.5,14.5,14.5C31,21.1,28.7,25.3,25.2,28z"/>
</svg>
