<?xml version="1.0" encoding="utf-8"?>
<!-- Generator: Adobe Illustrator 21.0.0, SVG Export Plug-In . SVG Version: 6.00 Build 0)  -->
<svg version="1.1" id="Layer_1" xmlns="http://www.w3.org/2000/svg" xmlns:xlink="http://www.w3.org/1999/xlink" x="0px" y="0px"
	 viewBox="0 0 27.6 28.6" style="enable-background:new 0 0 27.6 28.6;" xml:space="preserve">
<style type="text/css">
	.st0{fill:#FFB600;}
	.st1{fill:#CB2026;}
	.st2{fill:#FFFFFF;}
	.st3{fill:#104493;}
	.st4{clip-path:url(#SVGID_2_);}
	.st5{clip-path:url(#SVGID_4_);fill-rule:evenodd;clip-rule:evenodd;}
	.st6{fill:none;stroke:#000000;stroke-width:3;stroke-linecap:round;stroke-linejoin:round;stroke-miterlimit:10;}
	.st7{fill:#231F20;}
	.st8{fill:#F9B953;}
	.st9{fill:#C31A36;}
	.st10{fill:#18BF18;}
	.st11{clip-path:url(#SVGID_6_);}
	.st12{fill:#FF7A3E;}
	.st13{fill:none;stroke:#000000;stroke-width:2.5;stroke-miterlimit:10;}
	.st14{fill:none;}
	.st15{stroke:#231F20;stroke-width:0.55;stroke-miterlimit:10;}
	.st16{clip-path:url(#SVGID_8_);}
</style>
<g>
	<path d="M0.4,26c-0.6,0.6-0.6,1.6,0,2.1c0.3,0.3,0.7,0.4,1,0.4c0.4,0,0.8-0.2,1.1-0.5L9.4,21c1.9,1.4,4.2,2.1,6.6,2.1
		c6.4,0,11.5-5.2,11.5-11.5C27.6,5.2,22.4,0,16.1,0C9.7,0,4.5,5.2,4.5,11.5c0,2.7,1,5.3,2.7,7.4L0.4,26L0.4,26z M16.1,3
		c4.7,0,8.5,3.8,8.5,8.5c0,4.7-3.8,8.5-8.5,8.5c-4.7,0-8.5-3.8-8.5-8.5C7.5,6.8,11.4,3,16.1,3L16.1,3z M16.1,3"/>
</g>
</svg>
