<?xml version="1.0" encoding="utf-8"?>
<!-- Generator: Adobe Illustrator 21.0.0, SVG Export Plug-In . SVG Version: 6.00 Build 0)  -->
<svg version="1.1" id="Layer_1" xmlns="http://www.w3.org/2000/svg" xmlns:xlink="http://www.w3.org/1999/xlink" x="0px" y="0px"
	 viewBox="0 0 29.5 29.5" style="enable-background:new 0 0 29.5 29.5;" xml:space="preserve">
<style type="text/css">
	.st0{fill:#FFB600;}
	.st1{fill:#CB2026;}
	.st2{fill:#FFFFFF;}
	.st3{fill:#104493;}
	.st4{clip-path:url(#SVGID_2_);}
	.st5{clip-path:url(#SVGID_4_);fill-rule:evenodd;clip-rule:evenodd;}
	.st6{fill:none;stroke:#000000;stroke-width:3;stroke-linecap:round;stroke-linejoin:round;stroke-miterlimit:10;}
	.st7{fill:#231F20;}
	.st8{fill:#F9B953;}
	.st9{fill:#C31A36;}
	.st10{fill:#18BF18;}
	.st11{clip-path:url(#SVGID_6_);}
	.st12{fill:#FF7A3E;}
	.st13{fill:none;stroke:#000000;stroke-width:2.5;stroke-miterlimit:10;}
	.st14{fill:none;}
	.st15{stroke:#231F20;stroke-width:0.55;stroke-miterlimit:10;}
	.st16{clip-path:url(#SVGID_8_);}
</style>
<g>
	<path class="st8" d="M26.7,21.7l-3.4-3.4c-0.6-0.6-1.3-1-2.1-1c-0.8,0-1.5,0.3-2.1,1l-2,2c-0.2-0.1-0.3-0.2-0.5-0.2
		c-0.2-0.1-0.4-0.2-0.6-0.3c-1.8-1.2-3.5-2.7-5.1-4.7c-0.8-1-1.3-1.8-1.7-2.7c0.5-0.5,1-1,1.4-1.4c0.2-0.2,0.3-0.4,0.5-0.5
		c1.3-1.3,1.3-3,0-4.3L9.5,4.4C9.3,4.2,9.1,4,8.9,3.8C8.5,3.4,8.1,3,7.7,2.6C7.1,2,6.4,1.7,5.6,1.7C4.9,1.7,4.1,2,3.5,2.6l0,0
		L1.4,4.8C0.6,5.6,0.1,6.5,0,7.7c-0.1,1.8,0.4,3.5,0.8,4.6c1,2.7,2.5,5.2,4.8,7.9c2.7,3.3,6,5.8,9.8,7.6c1.4,0.7,3.3,1.5,5.5,1.6
		c0.1,0,0.3,0,0.4,0c1.4,0,2.6-0.5,3.6-1.5c0,0,0,0,0,0c0.3-0.4,0.7-0.7,1.1-1.1c0.3-0.3,0.5-0.5,0.8-0.8c0.6-0.6,0.9-1.4,0.9-2.2
		C27.7,23.1,27.4,22.3,26.7,21.7z M25.5,24.8c-0.2,0.3-0.5,0.5-0.8,0.8c-0.4,0.4-0.8,0.8-1.2,1.2c-0.6,0.7-1.4,1-2.3,1
		c-0.1,0-0.2,0-0.3,0c-1.8-0.1-3.6-0.8-4.9-1.5c-3.5-1.7-6.6-4.1-9.2-7.2c-2.1-2.6-3.5-4.9-4.5-7.5c-0.6-1.6-0.8-2.8-0.7-3.9
		C1.8,7.1,2,6.5,2.6,6l2.1-2.1C5,3.5,5.3,3.4,5.6,3.4c0.4,0,0.7,0.2,0.9,0.4l0,0C6.9,4.2,7.3,4.6,7.7,5c0.2,0.2,0.4,0.4,0.6,0.6
		L10,7.3c0.7,0.7,0.7,1.3,0,1.9C9.8,9.4,9.6,9.6,9.4,9.7c-0.5,0.5-1,1-1.6,1.5c0,0,0,0,0,0c-0.5,0.5-0.4,1.1-0.3,1.4l0,0.1
		c0.4,1.1,1.1,2.1,2,3.3l0,0c1.7,2.1,3.5,3.8,5.5,5c0.3,0.2,0.5,0.3,0.8,0.4c0.2,0.1,0.4,0.2,0.6,0.3c0,0,0,0,0.1,0
		C16.8,22,17,22,17.2,22c0.5,0,0.8-0.3,0.9-0.4l2.1-2.1c0.2-0.2,0.5-0.5,0.9-0.5c0.4,0,0.7,0.2,0.9,0.5l3.4,3.4
		C26.2,23.5,26.2,24.2,25.5,24.8z"/>
	<path class="st9" d="M15.9,7c1.6,0.3,3.1,1,4.3,2.2c1.2,1.2,1.9,2.7,2.2,4.3c0.1,0.4,0.4,0.7,0.8,0.7c0,0,0.1,0,0.1,0
		c0.5-0.1,0.8-0.5,0.7-1c-0.3-2-1.3-3.8-2.7-5.2c-1.4-1.4-3.2-2.4-5.2-2.7c-0.5-0.1-0.9,0.2-1,0.7C15.2,6.5,15.5,6.9,15.9,7L15.9,7z
		 M15.9,7"/>
	<path class="st9" d="M29.5,13c-0.6-3.3-2.1-6.2-4.4-8.6c-2.4-2.4-5.3-3.9-8.6-4.4c-0.5-0.1-0.9,0.2-1,0.7c-0.1,0.5,0.2,0.9,0.7,1
		c2.9,0.5,5.5,1.9,7.7,4c2.1,2.1,3.5,4.8,4,7.7c0.1,0.4,0.4,0.7,0.8,0.7c0,0,0.1,0,0.1,0C29.2,13.9,29.5,13.5,29.5,13L29.5,13z
		 M29.5,13"/>
</g>
</svg>
