<?xml version="1.0" encoding="utf-8"?>
<!-- Generator: Adobe Illustrator 21.0.0, SVG Export Plug-In . SVG Version: 6.00 Build 0)  -->
<svg version="1.1" id="Layer_1" xmlns="http://www.w3.org/2000/svg" xmlns:xlink="http://www.w3.org/1999/xlink" x="0px" y="0px"
	 viewBox="0 0 20.6 26" style="enable-background:new 0 0 20.6 26;" xml:space="preserve">
<style type="text/css">
	.st0{fill:#FFB600;}
	.st1{fill:#CB2026;}
	.st2{fill:#FFFFFF;}
	.st3{fill:#104493;}
	.st4{clip-path:url(#SVGID_2_);}
	.st5{clip-path:url(#SVGID_4_);fill-rule:evenodd;clip-rule:evenodd;}
	.st6{fill:none;stroke:#000000;stroke-width:3;stroke-linecap:round;stroke-linejoin:round;stroke-miterlimit:10;}
	.st7{fill:#231F20;}
	.st8{fill:#F9B953;}
	.st9{fill:#C31A36;}
	.st10{fill:#18BF18;}
	.st11{clip-path:url(#SVGID_6_);}
	.st12{fill:#FF7A3E;}
	.st13{fill:none;stroke:#000000;stroke-width:2.5;stroke-miterlimit:10;}
	.st14{fill:none;}
	.st15{stroke:#231F20;stroke-width:0.55;stroke-miterlimit:10;}
	.st16{clip-path:url(#SVGID_8_);}
</style>
<path class="st15" d="M9.9,0.3c-5,0.2-9.1,4.1-9.6,9c-0.1,1,0,1.9,0.1,2.9c0,0,0,0,0,0c0,0,0,0.1,0.1,0.3c0.2,0.7,0.4,1.4,0.7,2
	c1.1,2.7,3.6,6.7,9,11.2c0.1,0,0.1,0.1,0.1,0.1c0,0,0.1,0,0.1-0.1c5.4-4.5,7.8-8.5,8.9-11.2c0.3-0.7,0.5-1.3,0.7-2
	c0-0.2,0.1-0.3,0.1-0.3c0.1-0.6,0.2-1.3,0.2-1.9C20.3,4.7,15.6,0.1,9.9,0.3z M10.3,14.9c-2.5,0-4.5-2-4.5-4.5c0-2.5,2-4.5,4.5-4.5
	c2.5,0,4.5,2,4.5,4.5C14.8,12.9,12.8,14.9,10.3,14.9z"/>
</svg>
