<?xml version="1.0" encoding="utf-8"?>
<!-- Generator: Adobe Illustrator 21.0.0, SVG Export Plug-In . SVG Version: 6.00 Build 0)  -->
<svg version="1.1" id="Layer_1" xmlns="http://www.w3.org/2000/svg" xmlns:xlink="http://www.w3.org/1999/xlink" x="0px" y="0px"
	 viewBox="0 0 39 32.9" style="enable-background:new 0 0 39 32.9;" xml:space="preserve">
<style type="text/css">
	.st0{fill:#FFB600;}
	.st1{fill:#CB2026;}
	.st2{fill:#FFFFFF;}
	.st3{fill:#104493;}
	.st4{clip-path:url(#SVGID_2_);}
	.st5{clip-path:url(#SVGID_4_);fill-rule:evenodd;clip-rule:evenodd;}
	.st6{fill:none;stroke:#000000;stroke-width:3;stroke-linecap:round;stroke-linejoin:round;stroke-miterlimit:10;}
	.st7{fill:#231F20;}
	.st8{fill:#F9B953;}
	.st9{fill:#C31A36;}
	.st10{fill:#18BF18;}
	.st11{clip-path:url(#SVGID_6_);}
	.st12{fill:#FF7A3E;}
	.st13{fill:none;stroke:#000000;stroke-width:2.5;stroke-miterlimit:10;}
	.st14{fill:none;}
	.st15{stroke:#231F20;stroke-width:0.55;stroke-miterlimit:10;}
	.st16{clip-path:url(#SVGID_8_);}
</style>
<g>
	<path d="M5.2,11.7c0.3,0.5,0.9,0.8,1.4,0.7c0.2,0,0.4-0.1,0.6-0.2c0.7-0.4,0.9-1.4,0.5-2.1L4.7,5.1C4.2,4.3,3.3,4.1,2.6,4.6
		C1.9,5,1.6,5.9,2.1,6.7L5.2,11.7z M5.2,11.7"/>
	<path d="M11.7,8.5c0.2,0.7,0.9,1.2,1.6,1.1c0.1,0,0.2,0,0.2,0c0.8-0.2,1.3-1,1.1-1.8L13.2,2c-0.2-0.8-1-1.3-1.8-1.1
		c-0.8,0.2-1.3,1-1.1,1.8L11.7,8.5z M11.7,8.5"/>
	<path d="M20.2,9c0.1,0,0.2,0,0.2,0c0.7-0.1,1.3-0.7,1.4-1.4l0.3-5.9c0-0.8-0.6-1.6-1.4-1.6c-0.8,0-1.6,0.6-1.6,1.4l-0.3,5.9
		C18.7,8.2,19.3,8.9,20.2,9L20.2,9z M20.2,9"/>
	<path d="M26.8,10.4c0.2,0.1,0.5,0.1,0.7,0.1c0.6-0.1,1.1-0.4,1.3-1l2.1-5.6c0.3-0.8-0.1-1.7-0.9-2c-0.8-0.3-1.7,0.1-2,0.9l-2.1,5.6
		C25.6,9.2,26,10.1,26.8,10.4L26.8,10.4z M26.8,10.4"/>
	<path d="M38.4,6.8c-0.7-0.5-1.6-0.4-2.1,0.2l-3.7,4.7c-0.5,0.7-0.4,1.6,0.2,2.1c0.3,0.3,0.7,0.4,1.1,0.3c0.4,0,0.8-0.2,1-0.6
		l3.7-4.7C39.2,8.2,39.1,7.3,38.4,6.8L38.4,6.8z M38.4,6.8"/>
	<path d="M36.4,20.8c-0.1-0.1-1.9-2.3-4.9-4.5c-4.1-3-8.5-4.6-12.8-4.6c-4.3,0-8.8,1.6-12.8,4.6c-2.9,2.2-4.7,4.3-4.9,4.5L0.1,22
		c-0.2,0.2-0.2,0.5,0,0.7L1,23.8c0.1,0.1,1.8,2.3,4.9,4.5c4.1,3,8.5,4.6,12.8,4.6c4.3,0,8.8-1.6,12.8-4.6c3-2.2,4.8-4.4,4.9-4.5
		l0.9-1.1c0.2-0.2,0.2-0.5,0-0.7L36.4,20.8z M34.6,22.3c-0.1,0.1-1.7,2.1-4.4,4.1c-3.7,2.7-7.6,4.1-11.5,4.1
		c-3.8,0-7.8-1.4-11.5-4.1c-2.8-2-4.4-4.1-4.4-4.1l0,0l0,0c0,0,1.7-2.1,4.4-4.1c2.4-1.8,4.9-3,7.5-3.6c0.7,0.4,1.1,1.2,1.1,2
		c0,1.3-1.1,2.4-2.4,2.4c-0.7,0-1.3-0.3-1.7-0.8c-0.1,0.5-0.2,1.1-0.2,1.7c0,4,3.2,7.2,7.2,7.2c4,0,7.2-3.2,7.2-7.2
		c0-1.9-0.7-3.6-2-4.9c2.1,0.7,4.2,1.8,6.2,3.3C32.9,20.2,34.5,22.2,34.6,22.3L34.6,22.3L34.6,22.3z M34.6,22.3"/>
</g>
</svg>
